<svg version="1.1" xmlns="http://www.w3.org/2000/svg" xmlns:xlink="http://www.w3.org/1999/xlink" width="114.9665" height="95.5471" viewBox="0,0,114.9665,95.5471"><g transform="translate(-182.51675,-132.22645)"><g stroke-miterlimit="10"><path d="M185.381,227.77355c-1.58188,0 -2.86425,-1.79086 -2.86425,-4v-87.5471c0,-2.20914 1.28236,-4 2.86425,-4h109.23801c1.58188,0 2.86424,1.79086 2.86424,4v87.5471c0,2.20914 -1.28236,4 -2.86424,4z" fill="#59ad0d" fill-rule="nonzero" stroke="#000000" stroke-width="0"/><text transform="translate(187.48376,216.66691) scale(0.42613,0.42613)" font-size="40" xml:space="preserve" fill="#ffffff" fill-rule="nonzero" stroke="none" stroke-width="1" font-family="Sans Serif" font-weight="normal" text-anchor="start"><tspan x="0" dy="0">Achivements</tspan></text><g stroke="none" stroke-width="1"><path d="M219.60403,154.02376h6.34527c0,-1.01626 0.00762,-2.06555 0.02287,-3.14787v-3.9939h27.86966v3.99771c0,1.1128 0,2.15701 0,3.14787h6.57012c0.6251,0.00129 1.13953,0.49225 1.16997,1.11662c0.10767,1.76676 0.05666,3.53961 -0.15244,5.29725c-0.18001,1.65744 -0.6782,3.26457 -1.46723,4.73323c-0.77947,1.39224 -1.94387,2.53018 -3.35366,3.27744c-1.64489,0.82736 -3.45618,1.27042 -5.29725,1.29573c-1.24619,2.06936 -2.90777,3.04878 -4.85137,4.82851c-2.35137,1.79497 -4.11966,3.14787 -2.7439,7.29039h2.05412c1.64417,0.00419 2.97599,1.33601 2.98018,2.98018v1.20046h0.29345c0.77766,-0.00351 1.52483,0.30221 2.07698,0.84985v0c0.55254,0.5498 0.8626,1.29751 0.86128,2.07698v1.99314c0,0.37254 -0.302,0.67454 -0.67454,0.67454h-22.79725c-0.37254,0 -0.67454,-0.302 -0.67454,-0.67454v-1.99314c-0.00175,-0.77956 0.30838,-1.52743 0.86128,-2.07698v0c0.54863,-0.55196 1.29493,-0.86201 2.07317,-0.86128h0.29345v-1.18902c0,-0.78892 0.31563,-1.54506 0.87652,-2.09985v0c0.55685,-0.55736 1.31198,-0.8712 2.09985,-0.87271h2.30945c1.22713,-3.91006 -0.3811,-5.1753 -2.6029,-6.92454c-2.00141,-1.36089 -3.68813,-3.13466 -4.94665,-5.20198c-1.8997,-0.00609 -3.77148,-0.45772 -5.46494,-1.3186c-1.40384,-0.74607 -2.55994,-1.88494 -3.32698,-3.27744c-0.77369,-1.46436 -1.26007,-3.06322 -1.43293,-4.71036c-0.20073,-1.73022 -0.24919,-3.47472 -0.14482,-5.21341v-0.03049c0,-0.31197 0.12419,-0.6111 0.34514,-0.83134c0.22095,-0.22024 0.52049,-0.34346 0.83245,-0.34244zM253.71226,158.31492c-0.08329,2.30235 -0.33807,4.59528 -0.76219,6.85975c0.67304,-0.1266 1.31823,-0.37177 1.90549,-0.72409c0.58926,-0.36399 1.07384,-0.87484 1.40625,-1.48247c0.37775,-0.713 0.62674,-1.48706 0.73552,-2.28658c0.11837,-0.78861 0.18204,-1.58446 0.19055,-2.38186h-3.47561zM226.04839,158.31492h-3.09451c0.00677,0.79931 0.06405,1.59739 0.17149,2.38948c0.09635,0.79578 0.32837,1.56917 0.68598,2.28658c0.31504,0.60434 0.78444,1.1145 1.36052,1.47866c0.55379,0.33832 1.16259,0.57694 1.79878,0.70503c-0.53292,-2.25057 -0.84184,-4.54835 -0.92226,-6.85975z" fill="#f39d00" fill-rule="nonzero"/><path d="M226.03315,157.13733h-3.77668c-0.25888,0 -0.46875,0.20987 -0.46875,0.46875c0,2.35518 0.18293,4.37881 1.01372,5.93369c0.83079,1.55488 2.27896,2.58765 4.77896,2.92302c0.35853,0.74935 0.80364,1.45411 1.32622,2.09985c-4.16158,-0.11814 -6.55107,-1.65777 -7.85823,-3.98628c-1.39482,-2.45046 -1.61966,-5.84222 -1.44436,-9.37881h6.42911zM253.76561,155.20136h6.64253c0.17149,3.53658 -0.06479,6.91692 -1.46341,9.38262c-1.32622,2.33232 -3.72332,3.87195 -7.91539,3.98247c0.55885,-0.63661 1.03164,-1.34388 1.40625,-2.10366c2.49238,-0.33918 3.97104,-1.36433 4.83994,-2.91158c0.8689,-1.54726 1.08232,-3.58232 1.08232,-5.94512c-0.00209,-0.25739 -0.21135,-0.46495 -0.46875,-0.46494h-4.12347z" fill="#f9c809" fill-rule="nonzero"/><path d="M248.75037,186.04357h0.29345c0.77821,-0.0025 1.52546,0.30463 2.07698,0.85366v0c0.55254,0.5498 0.8626,1.29751 0.86128,2.07698v4.05107c0,0.37254 -0.302,0.67454 -0.67454,0.67454h-22.79725c-0.37254,0 -0.67454,-0.302 -0.67454,-0.67454v-4.03963c-0.00481,-0.78351 0.30555,-1.53607 0.86128,-2.08841v0c0.54863,-0.55196 1.29493,-0.86201 2.07317,-0.86128h17.98018z" fill="#222222" fill-rule="nonzero"/><path d="M247.83573,188.03671c0.4292,0.00453 0.83957,0.17689 1.14329,0.48018c0.30503,0.30255 0.47771,0.71367 0.48018,1.14329v2.01219h-19.08536v-2.01219c0.00147,-0.42908 0.17274,-0.84012 0.47637,-1.14329v0c0.30222,-0.30506 0.71388,-0.47658 1.14329,-0.47637h13.30792z" fill="#ead79e" fill-rule="nonzero"/><path d="M234.42491,174.12666c-0.89891,-0.67844 -1.75308,-1.41422 -2.55716,-2.20274c-1.38404,-1.39361 -2.47167,-3.05294 -3.19741,-4.87805c-0.88415,-2.19893 -1.52439,-5.07241 -1.70351,-8.95579v-10.20198h1.76448c2.01601,14.31783 2.8125,24.6532 11.26143,27.65624v6.77972h-2.28658c1.32622,-4.57317 -0.60976,-6.09756 -3.28125,-8.19741z" fill="#f8b705" fill-rule="nonzero"/><path d="M240.00799,182.32406v-6.78735h-0.02668v-0.05716c-0.28622,-0.07677 -0.56749,-0.17095 -0.84223,-0.28201c-0.73641,-0.32633 -1.43534,-0.73138 -2.0846,-1.20808c-1.43945,-1.17967 -2.64542,-2.61831 -3.55564,-4.24161c-2.67149,-5.02668 -3.46418,-12.6067 -4.76753,-21.85975h24.13871v10.46494c0,9.99619 -3.98247,13.03734 -7.0503,15.37728c-2.78963,2.11509 -4.90854,3.75 -3.42988,8.59375h-2.3971z" fill="#fac809" fill-rule="nonzero"/><path d="M240.58345,154.55349l1.06707,2.61814l2.81631,0.21341c0.30006,0.0231 0.55456,0.2294 0.63925,0.51819c0.08469,0.28879 -0.01808,0.59986 -0.25815,0.78135l-2.13033,1.8064l0.67073,2.73628c0.04464,0.187 0.01308,0.38407 -0.08771,0.54778c-0.1008,0.16371 -0.26256,0.28061 -0.44963,0.32494c-0.1948,0.04793 -0.40078,0.01198 -0.56784,-0.09909l-2.37043,-1.4939l-2.3971,1.48247c-0.16364,0.10146 -0.36095,0.13357 -0.54831,0.08923c-0.18736,-0.04434 -0.34936,-0.16147 -0.45016,-0.32551c-0.10312,-0.16321 -0.1348,-0.36157 -0.08765,-0.54878l0.66692,-2.73628l-2.15701,-1.82927c-0.22209,-0.19151 -0.30757,-0.4976 -0.21683,-0.77647c0.09074,-0.27887 0.33996,-0.47606 0.63223,-0.50021l2.81631,-0.19055l1.07088,-2.60671c0.11372,-0.26976 0.37798,-0.44514 0.67073,-0.44514c0.29275,0 0.55701,0.17538 0.67073,0.44514z" fill="#f39d00" fill-rule="nonzero"/><path d="M239.91272,154.83169l1.23857,3.01829l3.26219,0.24771l-2.49619,2.11509l0.77363,3.17073l-2.7782,-1.71875l-2.7782,1.71875l0.77363,-3.17073l-2.49619,-2.11509l3.25838,-0.24771l1.24238,-3.01829z" fill="#ffffff" fill-rule="nonzero"/><path d="M247.5804,165.02986l-0.02668,0.03811c-0.63574,-0.43811 -1.50362,-0.29878 -1.97027,0.31631l-0.03811,-0.03049c0.22131,-0.30117 0.30695,-0.68102 0.23628,-1.04802c-0.04883,-0.36963 -0.24721,-0.70302 -0.54878,-0.92226c0.35437,0.08648 0.71311,0.1539 1.07469,0.20198c0.3701,-0.0502 0.70343,-0.24993 0.92226,-0.55259l0.03811,0.02668c-0.4349,0.63569 -0.29776,1.50035 0.3125,1.97027zM250.49579,160.14419l-0.02668,0.03811c-0.6343,-0.441 -1.50356,-0.30313 -1.97027,0.3125l-0.03811,-0.02668c0.43811,-0.63574 0.29878,-1.50362 -0.31631,-1.97027l0.02668,-0.03811c0.63694,0.43855 1.50606,0.29929 1.97408,-0.31631l0.0343,0.03049c-0.43811,0.63574 -0.29878,1.50362 0.31631,1.97027zM250.51866,154.97651l-0.04954,0.0686c-1.16266,-0.80134 -2.74976,-0.54801 -3.60518,0.57546l-0.0686,-0.04954c0.39985,-0.54878 0.55691,-1.23763 0.43445,-1.90549c-0.08872,-0.67819 -0.45432,-1.28935 -1.00991,-1.68826l0.04954,-0.0686c1.16266,0.80134 2.74976,0.54801 3.60518,-0.57546l0.0686,0.04954c-0.39985,0.54878 -0.55691,1.23763 -0.43445,1.90549c0.0896,0.67788 0.455,1.28872 1.00991,1.68826z" fill="#ffffff" fill-rule="evenodd"/></g></g></g></svg>